<mxfile host="app.diagrams.net" agent="Mozilla/5.0 (Windows NT 10.0; Win64; x64) AppleWebKit/537.36 (KHTML, like Gecko) Chrome/132.0.0.0 Safari/537.36 Edg/132.0.0.0" version="26.0.6">
  <diagram name="Page-1" id="64c3da0e-402f-94eb-ee01-a36477274f13">
    <mxGraphModel dx="3141" dy="1695" grid="1" gridSize="10" guides="1" tooltips="1" connect="1" arrows="1" fold="1" page="1" pageScale="1" pageWidth="1169" pageHeight="826" background="none" math="0" shadow="0">
      <root>
        <mxCell id="0" />
        <mxCell id="1" parent="0" />
        <mxCell id="mK7F_AB652IfEt07Ab79-242" value="GAME TITLE" style="rounded=0;whiteSpace=wrap;html=1;" vertex="1" parent="1">
          <mxGeometry x="800" y="280" width="120" height="60" as="geometry" />
        </mxCell>
        <mxCell id="mK7F_AB652IfEt07Ab79-243" value="HIGH SCORES" style="rounded=0;whiteSpace=wrap;html=1;" vertex="1" parent="1">
          <mxGeometry x="600" y="280" width="120" height="60" as="geometry" />
        </mxCell>
        <mxCell id="mK7F_AB652IfEt07Ab79-244" value="INFO BUTTON" style="rounded=0;whiteSpace=wrap;html=1;" vertex="1" parent="1">
          <mxGeometry x="400" y="280" width="120" height="60" as="geometry" />
        </mxCell>
        <mxCell id="mK7F_AB652IfEt07Ab79-245" value="START BUTTON" style="rounded=0;whiteSpace=wrap;html=1;" vertex="1" parent="1">
          <mxGeometry x="200" y="280" width="120" height="60" as="geometry" />
        </mxCell>
        <mxCell id="mK7F_AB652IfEt07Ab79-246" value="" style="endArrow=none;html=1;rounded=0;exitX=0.5;exitY=0;exitDx=0;exitDy=0;entryX=0.5;entryY=0;entryDx=0;entryDy=0;" edge="1" parent="1" source="mK7F_AB652IfEt07Ab79-242" target="mK7F_AB652IfEt07Ab79-243">
          <mxGeometry width="50" height="50" relative="1" as="geometry">
            <mxPoint x="1020" y="210" as="sourcePoint" />
            <mxPoint x="1070" y="160" as="targetPoint" />
            <Array as="points">
              <mxPoint x="600" y="200" />
            </Array>
          </mxGeometry>
        </mxCell>
        <mxCell id="mK7F_AB652IfEt07Ab79-247" value="" style="endArrow=none;html=1;rounded=0;exitX=0.5;exitY=0;exitDx=0;exitDy=0;entryX=0.5;entryY=0;entryDx=0;entryDy=0;" edge="1" parent="1" source="mK7F_AB652IfEt07Ab79-245" target="mK7F_AB652IfEt07Ab79-244">
          <mxGeometry width="50" height="50" relative="1" as="geometry">
            <mxPoint x="1020" y="210" as="sourcePoint" />
            <mxPoint x="1070" y="160" as="targetPoint" />
            <Array as="points">
              <mxPoint x="520" y="200" />
            </Array>
          </mxGeometry>
        </mxCell>
        <mxCell id="mK7F_AB652IfEt07Ab79-241" value="START MENU" style="ellipse;whiteSpace=wrap;html=1;" vertex="1" parent="1">
          <mxGeometry x="490" y="130" width="150" height="100" as="geometry" />
        </mxCell>
        <mxCell id="mK7F_AB652IfEt07Ab79-248" value="" style="endArrow=none;html=1;rounded=0;" edge="1" parent="1">
          <mxGeometry width="50" height="50" relative="1" as="geometry">
            <mxPoint x="260" y="400" as="sourcePoint" />
            <mxPoint x="260" y="340" as="targetPoint" />
          </mxGeometry>
        </mxCell>
        <mxCell id="mK7F_AB652IfEt07Ab79-251" value="" style="endArrow=none;html=1;rounded=0;exitX=0.5;exitY=0;exitDx=0;exitDy=0;entryX=0.5;entryY=0;entryDx=0;entryDy=0;" edge="1" parent="1">
          <mxGeometry width="50" height="50" relative="1" as="geometry">
            <mxPoint x="560" y="520" as="sourcePoint" />
            <mxPoint x="360" y="520" as="targetPoint" />
            <Array as="points">
              <mxPoint x="300" y="440" />
            </Array>
          </mxGeometry>
        </mxCell>
        <mxCell id="mK7F_AB652IfEt07Ab79-252" value="" style="endArrow=none;html=1;rounded=0;exitX=0.5;exitY=0;exitDx=0;exitDy=0;entryX=0.5;entryY=0;entryDx=0;entryDy=0;" edge="1" parent="1">
          <mxGeometry width="50" height="50" relative="1" as="geometry">
            <mxPoint x="-40" y="520" as="sourcePoint" />
            <mxPoint x="160" y="520" as="targetPoint" />
            <Array as="points">
              <mxPoint x="220" y="440" />
            </Array>
          </mxGeometry>
        </mxCell>
        <mxCell id="mK7F_AB652IfEt07Ab79-249" value="IN-GAME INTERFACE" style="rounded=0;whiteSpace=wrap;html=1;" vertex="1" parent="1">
          <mxGeometry x="200" y="400" width="120" height="60" as="geometry" />
        </mxCell>
        <mxCell id="mK7F_AB652IfEt07Ab79-255" value="FUEL DISPLAY" style="rounded=0;whiteSpace=wrap;html=1;" vertex="1" parent="1">
          <mxGeometry x="300" y="520" width="120" height="60" as="geometry" />
        </mxCell>
        <mxCell id="mK7F_AB652IfEt07Ab79-256" value="SPEED DISPLAY" style="rounded=0;whiteSpace=wrap;html=1;" vertex="1" parent="1">
          <mxGeometry x="100" y="520" width="120" height="60" as="geometry" />
        </mxCell>
        <mxCell id="mK7F_AB652IfEt07Ab79-257" value="HEIGHT DISPLAY" style="rounded=0;whiteSpace=wrap;html=1;" vertex="1" parent="1">
          <mxGeometry x="-100" y="520" width="120" height="60" as="geometry" />
        </mxCell>
        <mxCell id="mK7F_AB652IfEt07Ab79-254" value="BUTTONS (INCREASE SPEED, DECREASE SPEED, TURN LEFT, TURN RIGHT)" style="rounded=0;whiteSpace=wrap;html=1;" vertex="1" parent="1">
          <mxGeometry x="500" y="520" width="130" height="70" as="geometry" />
        </mxCell>
        <mxCell id="mK7F_AB652IfEt07Ab79-260" value="&lt;p&gt;&lt;strong style=&quot;background-color: transparent; color: light-dark(rgb(0, 0, 0), rgb(255, 255, 255));&quot;&gt;Step-by-Step Flow&lt;/strong&gt;&lt;/p&gt;&lt;h4&gt;&lt;strong&gt;1. Start Menu&lt;/strong&gt;&lt;/h4&gt;&lt;ul&gt;&lt;li&gt;&lt;strong&gt;Oval:&lt;/strong&gt; &quot;Start Menu&quot;&lt;br&gt;&lt;ul&gt;&lt;br&gt;&lt;li&gt;&lt;strong&gt;Arrows (4):&lt;/strong&gt;&lt;br&gt;&lt;ul&gt;&lt;br&gt;&lt;li&gt;To &lt;strong&gt;Rectangles:&lt;/strong&gt; Start Button, Info Button, High Scores, Game Title.&lt;/li&gt;&lt;/ul&gt;&lt;/li&gt;&lt;br&gt;&lt;li&gt;&lt;strong&gt;Arrow (1):&lt;/strong&gt;&lt;br&gt;&lt;ul&gt;&lt;br&gt;&lt;li&gt;From &lt;strong&gt;Start Button&lt;/strong&gt; to &lt;strong&gt;In-Game Interface.&lt;/strong&gt;&lt;/li&gt;&lt;/ul&gt;&lt;/li&gt;&lt;/ul&gt;&lt;/li&gt;&lt;/ul&gt;&lt;h4&gt;&lt;strong&gt;2. In-Game Interface&lt;/strong&gt;&lt;/h4&gt;&lt;ul&gt;&lt;li&gt;&lt;strong&gt;Rectangle:&lt;/strong&gt; &quot;In-Game Interface&quot;&lt;br&gt;&lt;ul&gt;&lt;br&gt;&lt;li&gt;&lt;strong&gt;Arrows (4):&lt;/strong&gt;&lt;br&gt;&lt;ul&gt;&lt;br&gt;&lt;li&gt;To &lt;strong&gt;Sub-rectangles:&lt;/strong&gt; Height Display, Speed Display, Fuel Display, Control Buttons (Increase Speed, Decrease Speed, Turn Left, Turn Right).&lt;/li&gt;&lt;/ul&gt;&lt;/li&gt;&lt;li&gt;&lt;strong&gt;Arrow (1):&lt;/strong&gt;&lt;br&gt;&lt;ul&gt;&lt;br&gt;&lt;li&gt;To &lt;strong&gt;Gameplay Logic.&lt;/strong&gt;&lt;/li&gt;&lt;/ul&gt;&lt;/li&gt;&lt;/ul&gt;&lt;/li&gt;&lt;/ul&gt;&lt;h4&gt;&lt;strong&gt;3. Gameplay Logic&lt;/strong&gt;&lt;/h4&gt;&lt;ul&gt;&lt;li&gt;&lt;strong&gt;Rectangle:&lt;/strong&gt; &quot;Gameplay Logic&quot;&lt;br&gt;&lt;ul&gt;&lt;br&gt;&lt;li&gt;&lt;strong&gt;Arrows (3):&lt;/strong&gt;&lt;br&gt;&lt;ul&gt;&lt;br&gt;&lt;li&gt;To &lt;strong&gt;Rectangles:&lt;/strong&gt; Death Menu, Victory Menu, back to &lt;strong&gt;In-Game Interface.&lt;/strong&gt;&lt;/li&gt;&lt;/ul&gt;&lt;/li&gt;&lt;/ul&gt;&lt;/li&gt;&lt;/ul&gt;&lt;h4&gt;&lt;strong&gt;4. Pause Menu&lt;/strong&gt;&lt;/h4&gt;&lt;ul&gt;&lt;li&gt;&lt;strong&gt;Diamond:&lt;/strong&gt; &quot;Pause Decision&quot;&lt;br&gt;&lt;ul&gt;&lt;br&gt;&lt;li&gt;&lt;strong&gt;Arrow (1):&lt;/strong&gt;&lt;br&gt;&lt;ul&gt;&lt;br&gt;&lt;li&gt;To &lt;strong&gt;Rectangle:&lt;/strong&gt; Pause Menu.&lt;/li&gt;&lt;/ul&gt;&lt;/li&gt;&lt;li&gt;&lt;strong&gt;Arrows (2):&lt;/strong&gt;&lt;br&gt;&lt;ul&gt;&lt;br&gt;&lt;li&gt;From Pause Menu to:&lt;br&gt;&lt;ul&gt;&lt;br&gt;&lt;li&gt;&lt;strong&gt;Continue (back to In-Game Interface)&lt;/strong&gt;&lt;/li&gt;&lt;br&gt;&lt;li&gt;&lt;strong&gt;Return to Menu (Start Menu).&lt;/strong&gt;&lt;/li&gt;&lt;/ul&gt;&lt;/li&gt;&lt;/ul&gt;&lt;/li&gt;&lt;/ul&gt;&lt;/li&gt;&lt;/ul&gt;&lt;h4&gt;&lt;strong&gt;5. Death Menu&lt;/strong&gt;&lt;/h4&gt;&lt;ul&gt;&lt;li&gt;&lt;strong&gt;Rectangle:&lt;/strong&gt; &quot;Death Menu&quot;&lt;br&gt;&lt;ul&gt;&lt;br&gt;&lt;li&gt;&lt;strong&gt;Arrows (2):&lt;/strong&gt;&lt;br&gt;&lt;ul&gt;&lt;br&gt;&lt;li&gt;To &lt;strong&gt;Sub-rectangles:&lt;/strong&gt; Reset Button, Death Info.&lt;/li&gt;&lt;/ul&gt;&lt;/li&gt;&lt;/ul&gt;&lt;/li&gt;&lt;/ul&gt;&lt;h4&gt;&lt;strong&gt;6. Victory Menu&lt;/strong&gt;&lt;/h4&gt;&lt;ul&gt;&lt;li&gt;&lt;strong&gt;Rectangle:&lt;/strong&gt; &quot;Victory Menu&quot;&lt;ul&gt;&lt;li&gt;&lt;strong&gt;Arrows (2):&lt;/strong&gt;&lt;ul&gt;&lt;li&gt;To &lt;strong&gt;Sub-rectangles:&lt;/strong&gt; Return to Menu Button, Victory Info.&lt;/li&gt;&lt;/ul&gt;&lt;/li&gt;&lt;/ul&gt;&lt;/li&gt;&lt;/ul&gt;&lt;h3&gt;&lt;strong&gt;Simplified Totals&lt;/strong&gt;&lt;/h3&gt;&lt;br&gt;&lt;ul&gt;&lt;br&gt;&lt;li&gt;&lt;strong&gt;Ovals:&lt;/strong&gt; 1&lt;/li&gt;&lt;br&gt;&lt;li&gt;&lt;strong&gt;Rectangles:&lt;/strong&gt; 19 (includes Gameplay Logic, sub-rectangles).&lt;/li&gt;&lt;br&gt;&lt;li&gt;&lt;strong&gt;Diamonds:&lt;/strong&gt; 1 (Pause Decision).&lt;/li&gt;&lt;br&gt;&lt;li&gt;&lt;strong&gt;Arrows:&lt;/strong&gt; 24 (total connections).&lt;/li&gt;&lt;br&gt;&lt;/ul&gt;&lt;br&gt;&lt;hr&gt;&lt;br&gt;&lt;p&gt;Let me know if this format works for you!&lt;/p&gt;" style="text;whiteSpace=wrap;html=1;" vertex="1" parent="1">
          <mxGeometry x="1030" y="-10" width="560" height="2540" as="geometry" />
        </mxCell>
        <mxCell id="mK7F_AB652IfEt07Ab79-262" value="GAMEPLAY LOGIC" style="rounded=0;whiteSpace=wrap;html=1;" vertex="1" parent="1">
          <mxGeometry x="200" y="640" width="120" height="60" as="geometry" />
        </mxCell>
        <mxCell id="mK7F_AB652IfEt07Ab79-264" value="" style="endArrow=none;html=1;rounded=0;entryX=0.5;entryY=1;entryDx=0;entryDy=0;" edge="1" parent="1" target="mK7F_AB652IfEt07Ab79-262">
          <mxGeometry width="50" height="50" relative="1" as="geometry">
            <mxPoint x="260" y="800" as="sourcePoint" />
            <mxPoint x="210" y="710" as="targetPoint" />
            <Array as="points">
              <mxPoint x="260" y="740" />
            </Array>
          </mxGeometry>
        </mxCell>
        <mxCell id="mK7F_AB652IfEt07Ab79-265" value="" style="endArrow=none;html=1;rounded=0;entryX=1;entryY=1;entryDx=0;entryDy=0;" edge="1" parent="1" target="mK7F_AB652IfEt07Ab79-262">
          <mxGeometry width="50" height="50" relative="1" as="geometry">
            <mxPoint x="420" y="800" as="sourcePoint" />
            <mxPoint x="360" y="720" as="targetPoint" />
            <Array as="points" />
          </mxGeometry>
        </mxCell>
        <mxCell id="mK7F_AB652IfEt07Ab79-266" value="DEATH MENU" style="rounded=0;whiteSpace=wrap;html=1;" vertex="1" parent="1">
          <mxGeometry x="360" y="800" width="120" height="60" as="geometry" />
        </mxCell>
        <mxCell id="mK7F_AB652IfEt07Ab79-267" value="VICTORY MENU" style="rounded=0;whiteSpace=wrap;html=1;" vertex="1" parent="1">
          <mxGeometry x="200" y="800" width="120" height="60" as="geometry" />
        </mxCell>
        <mxCell id="mK7F_AB652IfEt07Ab79-270" value="" style="endArrow=classic;html=1;rounded=0;" edge="1" parent="1">
          <mxGeometry width="50" height="50" relative="1" as="geometry">
            <mxPoint x="235" y="640" as="sourcePoint" />
            <mxPoint x="235" y="480" as="targetPoint" />
            <Array as="points" />
          </mxGeometry>
        </mxCell>
        <mxCell id="mK7F_AB652IfEt07Ab79-271" value="" style="endArrow=classic;html=1;rounded=0;" edge="1" parent="1">
          <mxGeometry width="50" height="50" relative="1" as="geometry">
            <mxPoint x="280" y="460" as="sourcePoint" />
            <mxPoint x="280" y="610" as="targetPoint" />
            <Array as="points" />
          </mxGeometry>
        </mxCell>
      </root>
    </mxGraphModel>
  </diagram>
</mxfile>
